<mxfile host="app.diagrams.net" agent="Mozilla/5.0 (Windows NT 10.0; Win64; x64) AppleWebKit/537.36 (KHTML, like Gecko) Chrome/134.0.0.0 Safari/537.36" version="26.1.2">
  <diagram name="Page-1" id="IZUJVYv9Q2knSXJj-Lay">
    <mxGraphModel dx="880" dy="468" grid="1" gridSize="10" guides="1" tooltips="1" connect="1" arrows="1" fold="1" page="1" pageScale="1" pageWidth="850" pageHeight="1100" math="0" shadow="0">
      <root>
        <mxCell id="0" />
        <mxCell id="1" parent="0" />
        <mxCell id="hG24QL-BPT8fMhlMbBgl-1" value="" style="verticalLabelPosition=bottom;sketch=0;aspect=fixed;html=1;verticalAlign=top;strokeColor=none;align=center;outlineConnect=0;shape=mxgraph.citrix.laptop_2;" vertex="1" parent="1">
          <mxGeometry x="530" y="81.53" width="130" height="96.94" as="geometry" />
        </mxCell>
        <mxCell id="hG24QL-BPT8fMhlMbBgl-4" value="" style="image;html=1;image=img/lib/clip_art/computers/Laptop_128x128.png" vertex="1" parent="1">
          <mxGeometry x="120" y="60" width="130" height="140" as="geometry" />
        </mxCell>
        <mxCell id="hG24QL-BPT8fMhlMbBgl-5" value="" style="endArrow=classic;html=1;rounded=0;" edge="1" parent="1">
          <mxGeometry relative="1" as="geometry">
            <mxPoint x="320" y="120" as="sourcePoint" />
            <mxPoint x="485" y="120" as="targetPoint" />
          </mxGeometry>
        </mxCell>
        <mxCell id="hG24QL-BPT8fMhlMbBgl-6" value="ping windows ip&amp;nbsp;" style="edgeLabel;resizable=0;html=1;;align=center;verticalAlign=middle;" connectable="0" vertex="1" parent="hG24QL-BPT8fMhlMbBgl-5">
          <mxGeometry relative="1" as="geometry" />
        </mxCell>
        <mxCell id="hG24QL-BPT8fMhlMbBgl-12" value="Text" style="edgeLabel;html=1;align=center;verticalAlign=middle;resizable=0;points=[];" vertex="1" connectable="0" parent="hG24QL-BPT8fMhlMbBgl-5">
          <mxGeometry x="0.0788" relative="1" as="geometry">
            <mxPoint as="offset" />
          </mxGeometry>
        </mxCell>
        <mxCell id="hG24QL-BPT8fMhlMbBgl-9" value="" style="endArrow=classic;html=1;rounded=0;" edge="1" parent="1">
          <mxGeometry relative="1" as="geometry">
            <mxPoint x="470" y="160" as="sourcePoint" />
            <mxPoint x="310" y="160" as="targetPoint" />
          </mxGeometry>
        </mxCell>
        <mxCell id="hG24QL-BPT8fMhlMbBgl-10" value="ping kali ip&amp;nbsp;" style="edgeLabel;resizable=0;html=1;;align=center;verticalAlign=middle;" connectable="0" vertex="1" parent="hG24QL-BPT8fMhlMbBgl-9">
          <mxGeometry relative="1" as="geometry" />
        </mxCell>
        <mxCell id="hG24QL-BPT8fMhlMbBgl-14" value="" style="endArrow=classic;html=1;rounded=0;" edge="1" parent="1">
          <mxGeometry width="50" height="50" relative="1" as="geometry">
            <mxPoint x="160" y="260" as="sourcePoint" />
            <mxPoint x="160" y="320" as="targetPoint" />
          </mxGeometry>
        </mxCell>
        <mxCell id="hG24QL-BPT8fMhlMbBgl-15" value="" style="endArrow=classic;html=1;rounded=0;" edge="1" parent="1">
          <mxGeometry width="50" height="50" relative="1" as="geometry">
            <mxPoint x="620" y="248" as="sourcePoint" />
            <mxPoint x="620" y="308" as="targetPoint" />
            <Array as="points">
              <mxPoint x="620" y="238" />
              <mxPoint x="620" y="278" />
            </Array>
          </mxGeometry>
        </mxCell>
        <mxCell id="hG24QL-BPT8fMhlMbBgl-16" value="attacking machine tools; msfvenom,msfconsole" style="text;html=1;align=center;verticalAlign=middle;resizable=0;points=[];autosize=1;strokeColor=none;fillColor=none;" vertex="1" parent="1">
          <mxGeometry x="25" y="308" width="270" height="30" as="geometry" />
        </mxCell>
        <mxCell id="hG24QL-BPT8fMhlMbBgl-17" value="target machine disable defender and firewall remote access [ reverse shell]" style="text;html=1;align=center;verticalAlign=middle;resizable=0;points=[];autosize=1;strokeColor=none;fillColor=none;" vertex="1" parent="1">
          <mxGeometry x="410" y="298" width="420" height="30" as="geometry" />
        </mxCell>
      </root>
    </mxGraphModel>
  </diagram>
</mxfile>
